<svg xmlns="http://www.w3.org/2000/svg" viewBox="0 0 799.19 300.48">
                                        <path class="st0" d="M789.29,120.13c-9.04,12.99-23.09,18.12-37.79,21.16c-2.56-6.4-8.31-11.7-13.37-16.11
                                            c-2.61-2.28-4.84-4.5-6.44-7.46c2.28-2.67,4.43-5.78,4.4-8.97c-0.06-6.75-8.27-7.62-12.79-4.41c-3.57,2.54-4.27,6.4-3.61,10.35
                                            c-1.55,1.98-3.08,3.98-4.63,5.49c-5.79,5.65-11.9,10.98-18.17,16.09c-12.36,10.07-26.44,21.39-41.75,26.58
                                            c-7.11,2.41-18.72,2.54-23.88-2.59c6.94-3.91,13.58-8.29,19.92-13.26c8.36-6.55,16.44-15.09,11.42-26.49
                                            c-4.82-10.96-17.21-10.12-25.46-3.59c-9.73,7.7-15.44,19.77-18.37,31.6c-0.62,2.5-0.78,4.92-0.57,7.22
                                            c-5.85,3.05-11.95,5.81-17.96,7.64c-4.29,1.3-10.67,2.48-15.12,0.77c-8.03-3.08-3.59-17.9-2.47-24.21
                                            c1.84-10.43,2.83-23.59-11.52-23.69c-6.67-0.05-12.15,3.3-16.76,7.81c0.05-0.26,0.11-0.51,0.16-0.77
                                            c1.25-6.61-0.41-13.14-8.14-14.23c-8.21-1.16-16.38,7.09-22.4,11.56c-16.82,12.48-32.97,25.99-51.03,36.69
                                            c-3.89,2.3-8.46,5.67-12.88,6.71c-5.44,1.28-2.81-4.28-1.65-7.81c2.73-8.31,7.7-15.97,12.98-23.04c1.52-1.78,2.95-3.6,4.2-5.5
                                            c3.2-4.84-4.5-10.98-8.16-6.3c-1.39,1.78-2.94,3.74-4.55,5.84c-7.75,8.62-19.25,14.71-29.87,17.79c-7.99,2.31-16.2,2.64-23.9,0.46
                                            c5.9-8.51,12.76-21.23,8.25-30.06c-1.14-2.23-2.77-3.73-4.69-4.66c-0.42-0.26-0.88-0.48-1.44-0.63
                                            c-18.16-4.87-34.71,6.23-45.96,20.97c-14.48,15.74-30.87,33.38-53.02,33.52c-21.72,0.13-6.06-23.88,1.37-31.93
                                            c4.73-5.12,17.53-12.61,10.45-20.83c-1.22-1.42-3.33-1.73-5.05-1.34c-4.16,0.95-8.37,1.76-12.59,2.34
                                            c-2.43,0.34-8.53,1.75-12.09,1.22c0.48-3.3,0.41-6.45-0.58-9.16c-1.67-4.6-7.48-7.09-11.28-3.18c-3.49,3.61-2.44,10.54-0.39,14.91
                                            c-0.24,1.52-0.47,2.92-0.78,3.79c-7.55,21.31-28.06,37.69-49.82,43.03c-10.09,2.48-28.98,3.72-32.37-8.88
                                            c11.69-2.46,23.15-6.52,32.17-14.18c8.66-7.35,15.74-23.24,2.96-30.65c-15.33-8.89-32.28,7.89-39.62,19.95
                                            c-2.82,4.63-5.06,10.39-5.95,16.22c0,0,0,0,0,0c-22.63,3.69-54.6-1.54-68.76,21.27c-3.53,5.7,5.45,10.92,8.97,5.24
                                            c10.46-16.87,36.93-13.21,53.77-15.25c2.01-0.24,4.04-0.51,6.09-0.8c0.98,5.1,3.5,9.73,8.21,13.09c13.89,9.91,35.08,6.16,49.47-0.28
                                            c14.33-6.41,29.18-17.01,37.57-30.53c2.3-3.7,5.31-9.07,7.55-14.74c4.87,1.15,10.76,0.67,16.33-0.31c-0.25,0.26-0.51,0.5-0.75,0.76
                                            c-2.34,2.47-4.53,5.07-6.57,7.78c-4.08,5.43-7.56,11.63-9.19,18.28c-3.36,13.72,4.46,23.7,18.43,24.5
                                            c16.46,0.94,30.19-6.49,42.33-16.62c-0.89,10.43,7.11,18.03,18.87,16.43c12.36-1.68,23.45-11.26,31.59-20.86
                                            c4.62,1.88,9.4,3.08,13.61,3.42c10.58,0.86,22.09-1.85,32.52-6.96c-2.35,6.04-3.39,12.17-1.87,17.91
                                            c4.79,18.13,34.44-3.7,41.65-8.53c9.14-6.12,17.89-12.8,26.62-19.48c4.31-3.3,8.62-6.61,12.98-9.86c3.82-2.85,8.48-7.51,12.9-9.25
                                            c3.26-1.28,2.85-1.61,3.06,1.24c0.13,1.79-1.04,4.23-1.53,6c-1.24,4.46-2.69,8.87-4.17,13.26c-3.06,9.05-6.46,17.99-9.39,27.09
                                            c-2.06,6.4,7.87,9.05,10.02,2.76c4.32-12.61,10.27-25.43,18.82-35.76c2.44-2.95,14.01-15.04,15.93-6.29
                                            c0.71,3.25-1.4,8.78-1.95,12.03c-0.71,4.24-1.44,8.55-1.5,12.85c-0.16,11.52,4.94,19.33,16.79,20.6
                                            c11.34,1.21,21.07-3.39,31.09-8.02c1.19-0.55,2.37-1.12,3.54-1.69c2.37,3.27,5.81,5.91,10.1,7.64c10.19,4.09,21.6,2.18,31.37-2.11
                                            c17.25-7.59,32.75-19.94,46.96-32.11c4.86-4.16,9.67-8.45,14.18-13.01c3.43,5.04,8.54,8.24,12.64,12.69
                                            c1.54,1.68,2.72,3.31,3.55,4.94c-2.48,0.39-4.94,0.77-7.38,1.15c-9.37,1.48-21.21,1.92-24.54,12.72
                                            c-2.17,7.03,0.56,14.38,7.63,16.89c17.39,6.18,33.63-5.14,36.27-22.48c17.82-3.71,34.47-9.97,45.72-26.15
                                            C802.09,119.87,793.08,114.67,789.29,120.13z M215.19,122.21c3.74-2.91,15.46-8.25,15.7,0.38c0.14,5.15-5.62,9.71-9.4,12.28
                                            c-6.56,4.48-14.24,7.15-22.05,8.97C201.79,135.22,208.67,127.29,215.19,122.21z M381.82,158.95c-4.05,2.8-14.35,9.32-18.79,4.17
                                            c-5.13-5.96,8.62-23.35,14.21-29.67c0.8-0.84,1.59-1.67,2.38-2.49c0.85-0.86,1.7-1.71,2.59-2.52c-1.63,8.13,3.54,15.26,11.01,20.42
                                            C389.78,152.59,385.97,156.07,381.82,158.95z M405.39,130.96c-1.57,3.57-3.6,7-5.89,10.21c-0.15-0.09-0.3-0.17-0.44-0.27
                                            c-2.43-1.56-5.71-3.75-6.36-6.76c-1.15-5.34,3.53-10.31,7.75-12.37c2.85-1.39,6.92-3.17,7.57,0.66
                                            C408.4,124.74,406.25,129.01,405.39,130.96z M634.72,135.84c2.22-3.91,13.94-20.16,18.57-10.87c2.45,4.91-2.75,9.18-5.92,11.84
                                            c-5.63,4.73-11.75,8.95-18.08,12.7C630.65,144.77,632.27,140.15,634.72,135.84z M738.82,158.76c-3.45,5.64-9.13,6.76-15.44,6.12
                                            c-3.11-0.31-5.63-0.49-4.87-4.19c0.89-4.36,6.37-4.52,9.89-5.08c4.28-0.69,8.59-1.33,12.89-2.03
                                            C740.75,155.23,739.93,156.95,738.82,158.76z M125.03,114.92c0.3-0.54,0.6-1.09,0.9-1.64c15.57-6.24,30.16-14.99,43.55-25.11
                                            c20-15.12,40.63-36.33,44-62.44c1.14-8.79-1.48-21.6-11.07-25.12c-9.79-3.59-22.59,9.51-28.1,15.87
                                            c-20.5,23.69-35.8,52.78-51.12,79.94c-1.58,2.8-3.14,5.6-4.7,8.41c-1.27,0.46-2.55,0.92-3.82,1.35
                                            c-11.76,3.93-23.98,6.22-36.36,6.76c22.25-33.43,42.81-68.14,61.57-103.39c3.2-6.02-5.94-11.38-9.15-5.35
                                            c-19.79,37.19-41.75,73.48-65.3,108.53c-10.05-0.76-20.18-2.42-30.09-1.08c-23.03,3.14-38.83,27.1-34.68,49.74
                                            c1.62,8.84,8.75,19.47,18.95,19.1c11.05-0.4,20.2-13.29,26.09-21.2c8.71-11.71,17.2-23.63,25.46-35.74
                                            c8.29,0.06,16.56-0.5,24.85-1.84c5.09-0.82,10.1-1.95,15.02-3.34c-13.32,24.53-25.93,49.54-36.86,75.16
                                            c-13.75,32.22-23.92,66.49-20.72,101.87c0.61,6.74,11.22,6.8,10.6,0c-2.94-32.49,5.75-63.97,18.1-93.75
                                            C94.49,171.92,109.57,143.13,125.03,114.92z M175.61,31.74c4.42-5.92,9.2-12.09,15.22-16.47c1.72-1.25,6.63-4.76,8.52-4.18
                                            c2.9,0.89,3.91,7.7,3.91,10.15c-0.01,14.07-9.62,28.66-18.51,38.84c-13.53,15.5-31.42,28.71-50.47,38.03
                                            C146.91,75.31,160.14,52.49,175.61,31.74z M46.06,140.84c-5.37,7.56-17.36,29.85-27.73,28.33c-6.95-1.02-7.95-11.13-7.58-16.58
                                            c0.47-6.81,2.89-13.93,6.99-19.43c9.24-12.38,23.54-11.77,37.29-10.45c1.15,0.11,2.31,0.2,3.46,0.29
                                            C54.39,128.98,50.25,134.94,46.06,140.84z M231.53,80.29c15.57-2.55,28.97-13.56,37.01-26.84c3.47-5.74-5.51-10.96-8.97-5.24
                                            c-6.76,11.17-17.76,19.93-30.8,22.06C222.18,71.35,224.97,81.36,231.53,80.29z M439.09,61.43c-0.47,1.36-13.25,0.9-13.43,1.79
                                            c-0.31,1.5,8.72,9.48,8.72,9.48s8.58,7.76,15.58,9.99c7,2.22,14.54,3.45,19.32,2.83c4.78-0.62,7.63-1.11,11.66-3.23
                                            c2.19-1.15,4.61-1.73,6.97-1.65c2.36-0.07,4.77,0.5,6.97,1.65c4.03,2.12,6.88,2.61,11.66,3.23c4.78,0.62,12.31-0.61,19.32-2.83
                                            c7-2.22,15.58-9.99,15.58-9.99s9.03-7.98,8.72-9.48c-0.18-0.88-12.96-0.43-13.43-1.79s18.37-13.95,17.78-15.19
                                            c-0.59-1.24-27.39,2.48-35.36,3.26c-7.97,0.77-14.83,1.74-18.94,2.46c0,0-5.42,0.98-12.29,1.09c-6.87-0.11-12.29-1.09-12.29-1.09
                                            c-4.11-0.72-10.97-1.69-18.94-2.46c-7.97-0.77-34.77-4.49-35.36-3.26C420.73,47.48,439.57,60.07,439.09,61.43z M506.83,60.91
                                            c2.21-0.38,12.9,2.78,13.43,4.03c0.53,1.25-0.82,4.16-2.27,5.6c-1.45,1.45-9.49,5.82-11.84,5.6c-2.35-0.22-11.93-5.48-11.93-6.62
                                            C494.22,68.39,504.62,61.29,506.83,60.91z M455.56,64.94c0.53-1.25,11.22-4.41,13.43-4.03c2.21,0.38,12.61,7.48,12.61,8.62
                                            c0,1.14-9.58,6.4-11.93,6.62c-2.35,0.22-10.38-4.16-11.84-5.6C456.37,69.09,455.03,66.19,455.56,64.94z"></path>
                                    </svg>